<svg xmlns="http://www.w3.org/2000/svg" viewBox="0 0 866.03 1000"><defs><style>.cls-1{fill:#fff;}.cls-2{fill:#2e8bc0;}.cls-3{fill:#145da0;}.cls-4{fill:#b1d4e0;}</style></defs><g id="Background"><polygon class="cls-1" points="725.3 668.75 725.3 331.25 433.01 162.5 140.73 331.25 140.73 668.75 433.01 837.5 725.3 668.75"/></g><g id="Border"><polygon class="cls-2" points="140.16 668.56 140.16 331.06 0 250 0 750 433.01 1000 432.44 837.31 140.16 668.56"/><polygon class="cls-3" points="724.73 331.06 724.73 668.56 432.44 837.31 433.01 1000 866.02 750 866.02 250 724.73 331.06"/><polygon class="cls-4" points="432.44 162.31 724.73 331.06 866.02 250 433.01 0 0 250 140.16 331.06 432.44 162.31"/></g><g id="Icon"><path class="cls-2" d="M734,388.93a8.88,8.88,0,0,0-12.56,0l-35.26,35.25a15.85,15.85,0,0,1-22.43,0l-25.81-25.81a15.85,15.85,0,0,1,0-22.43l35.26-35.26a8.87,8.87,0,0,0,0-12.55,41.54,41.54,0,0,0-53.34-4.56l-19.16,13.54A72.81,72.81,0,0,0,570,392.72L567.7,435.1,366.37,636.45a41.93,41.93,0,1,0,59.3,59.3L627,494.41l42.37-2.27A72.8,72.8,0,0,0,725,461.43l13.55-19.17A41.54,41.54,0,0,0,734,388.93Z" transform="translate(-78.99 -12)"/><path class="cls-2" d="M509.74,463.11l-45.48-45.48,59.84-59.84a12.61,12.61,0,0,0,0-17.81L513,328.92a26.78,26.78,0,0,0-23.21-7.52l-95.65,15.33a26.84,26.84,0,0,0-14.73,7.51l-4.23,4.24L371.76,345A12.61,12.61,0,0,0,354,345l-25.86,25.87a12.58,12.58,0,0,0,0,17.8l3.45,3.47-50,50a12.58,12.58,0,0,0,0,17.8l61.3,61.3a12.6,12.6,0,0,0,17.8,0l40.08-40.09L442.57,523l94.71,94.71,77.16,77.15A44.93,44.93,0,0,0,678,631.34L601.7,555.07Z" transform="translate(-78.99 -12)"/></g></svg>