<?xml version="1.0" encoding="UTF-8" standalone="no"?>
<svg
   viewBox="0 0 6722.3431 1000"
   version="1.1"
   id="svg5"
   sodipodi:docname="mygamedevtools_logo_darkmode.svg"
   inkscape:version="1.3.2 (091e20e, 2023-11-25, custom)"
   width="6722.3433"
   height="1000"
   inkscape:export-filename="..\..\..\..\..\..\Projects\test\my-website\static\img\logo_full.svg"
   inkscape:export-xdpi="96"
   inkscape:export-ydpi="96"
   xmlns:inkscape="http://www.inkscape.org/namespaces/inkscape"
   xmlns:sodipodi="http://sodipodi.sourceforge.net/DTD/sodipodi-0.dtd"
   xmlns="http://www.w3.org/2000/svg"
   xmlns:svg="http://www.w3.org/2000/svg">
  <sodipodi:namedview
     id="namedview5"
     pagecolor="#505050"
     bordercolor="#eeeeee"
     borderopacity="1"
     inkscape:showpageshadow="0"
     inkscape:pageopacity="0"
     inkscape:pagecheckerboard="0"
     inkscape:deskcolor="#505050"
     inkscape:zoom="0.29325"
     inkscape:cx="2588.2353"
     inkscape:cy="642.79625"
     inkscape:window-width="2560"
     inkscape:window-height="1369"
     inkscape:window-x="1432"
     inkscape:window-y="549"
     inkscape:window-maximized="1"
     inkscape:current-layer="svg5"
     showgrid="false">
    <inkscape:grid
       id="grid1"
       units="px"
       originx="-1.1901728e-05"
       originy="1.1162109e-05"
       spacingx="0.99999997"
       spacingy="1"
       empcolor="#0099e5"
       empopacity="0.30196078"
       color="#0099e5"
       opacity="0.14902"
       empspacing="5"
       dotted="false"
       gridanglex="30"
       gridanglez="30"
       visible="false" />
  </sodipodi:namedview>
  <defs
     id="defs1">
    <style
       id="style1">.cls-1{fill:#fff;}.cls-2{fill:#2e8bc0;}.cls-3{fill:#145da0;}.cls-4{fill:#b1d4e0;}</style>
  </defs>
  <g
     id="Background">
    <polygon
       class="cls-1"
       points="725.3,668.75 725.3,331.25 433.01,162.5 140.73,331.25 140.73,668.75 433.01,837.5 "
       id="polygon1"
       style="display:inline" />
  </g>
  <g
     id="Border">
    <polygon
       class="cls-2"
       points="0,250 0,750 433.01,1000 432.44,837.31 140.16,668.56 140.16,331.06 "
       id="polygon2" />
    <polygon
       class="cls-3"
       points="432.44,837.31 433.01,1000 866.02,750 866.02,250 724.73,331.06 724.73,668.56 "
       id="polygon3" />
    <polygon
       class="cls-4"
       points="866.02,250 433.01,0 0,250 140.16,331.06 432.44,162.31 724.73,331.06 "
       id="polygon4" />
  </g>
  <g
     id="Icon">
    <path
       class="cls-2"
       d="m 734,388.93 a 8.88,8.88 0 0 0 -12.56,0 l -35.26,35.25 a 15.85,15.85 0 0 1 -22.43,0 l -25.81,-25.81 a 15.85,15.85 0 0 1 0,-22.43 l 35.26,-35.26 a 8.87,8.87 0 0 0 0,-12.55 41.54,41.54 0 0 0 -53.34,-4.56 L 600.7,337.11 A 72.81,72.81 0 0 0 570,392.72 l -2.3,42.38 -201.33,201.35 a 41.931432,41.931432 0 1 0 59.3,59.3 L 627,494.41 669.37,492.14 A 72.8,72.8 0 0 0 725,461.43 l 13.55,-19.17 A 41.54,41.54 0 0 0 734,388.93 Z"
       transform="translate(-78.99,-12)"
       id="path4" />
    <path
       class="cls-2"
       d="m 509.74,463.11 -45.48,-45.48 59.84,-59.84 a 12.61,12.61 0 0 0 0,-17.81 L 513,328.92 a 26.78,26.78 0 0 0 -23.21,-7.52 l -95.65,15.33 a 26.84,26.84 0 0 0 -14.73,7.51 l -4.23,4.24 -3.42,-3.48 A 12.61,12.61 0 0 0 354,345 l -25.86,25.87 a 12.58,12.58 0 0 0 0,17.8 l 3.45,3.47 -50,50 a 12.58,12.58 0 0 0 0,17.8 l 61.3,61.3 a 12.6,12.6 0 0 0 17.8,0 l 40.08,-40.09 41.8,41.85 94.71,94.71 77.16,77.15 A 44.93,44.93 0 0 0 678,631.34 l -76.3,-76.27 z"
       transform="translate(-78.99,-12)"
       id="path5" />
  </g>
  <path
     style="font-weight:600;font-size:192px;font-family:Inter;-inkscape-font-specification:'Inter Semi-Bold';letter-spacing:-3.16661px;word-spacing:-12.6665px;white-space:pre;fill:#ffffff;stroke-width:7.12143;stroke-linecap:round"
     d="M 1072.93,757.0672 V 259.67995 h 126.8504 l 96.8069,261.37867 q 5.0075,14.35413 11.3498,34.71696 6.6763,20.36283 13.6867,42.72857 7.01,22.36573 13.0187,42.39475 6.3427,20.02902 10.0145,33.3817 h -21.698 q 3.6718,-13.35268 9.6806,-33.3817 6.0087,-20.02902 13.019,-42.39475 7.01,-22.36574 13.3527,-42.72857 6.6763,-20.36283 11.3497,-34.71696 l 95.1377,-261.37867 h 127.5181 V 757.0672 h -86.7924 V 503.36632 q 0,-16.35703 0.3347,-37.72132 0.3347,-21.6981 1.0012,-45.3991 1.0017,-24.03482 1.3353,-48.40346 0.6676,-24.70245 1.0016,-47.06819 h 11.0158 q -8.0116,25.37009 -16.0232,51.40781 -8.0116,25.70391 -15.6892,49.73873 -7.678,23.701 -14.3543,43.73002 -6.3424,19.6952 -11.0158,33.71551 l -94.804,253.70088 h -72.1045 l -95.4718,-253.70088 q -4.6734,-14.02031 -11.6836,-33.71551 -6.6763,-20.02902 -14.3541,-43.73002 -7.6778,-24.03482 -16.0232,-49.73873 -8.3455,-26.03772 -16.6909,-51.40781 h 13.3527 q 0.6676,22.36574 1.0015,47.06819 0.6676,24.36864 1.3352,48.40346 0.6677,23.701 1.0015,45.3991 0.3336,21.36429 0.3336,37.72132 V 757.0672 Z m 598.4752,139.53548 v -68.43247 h 41.7269 q 11.3498,0 19.0278,-4.00581 8.0116,-4.0058 13.6863,-12.68504 6.0087,-8.67924 10.6821,-22.36574 l 13.0191,-34.04932 -135.8637,-350.5078 h 89.1293 l 64.7605,183.59932 q 10.0145,29.37589 19.0274,58.75179 9.3468,29.04207 18.0261,58.08414 h -23.3672 q 8.3456,-29.04207 17.6925,-58.41796 9.3468,-29.37589 19.3614,-58.41797 l 64.4264,-183.59932 h 88.1277 l -157.5616,410.59485 q -10.6821,27.37299 -25.7037,45.3991 -15.0219,18.35993 -35.3846,27.03917 -20.029,9.01306 -45.7331,9.01306 -13.3527,0 -27.373,0 -14.0203,0 -27.7066,0 z M 2341.1541,765.0788 q -68.7663,0 -121.5093,-32.38024 -52.4091,-32.38024 -82.119,-90.13057 -29.7095,-57.75034 -29.7095,-133.8606 0,-78.11317 30.0435,-135.8635 30.3772,-57.75033 83.1202,-89.46294 52.7431,-31.71261 119.1729,-31.71261 42.0609,0 78.4468,12.68504 36.7198,12.35123 65.4281,35.3846 28.7083,23.03337 47.0684,54.74598 18.6937,31.37879 24.0348,70.10156 h -89.797 q -4.6734,-21.36429 -15.3555,-38.38895 -10.6822,-17.35848 -26.7054,-29.70971 -16.0232,-12.35123 -36.3859,-19.02756 -20.363,-6.67634 -44.3978,-6.67634 -44.7315,0 -77.4455,22.03192 -32.7141,22.03191 -50.7402,62.08995 -17.6921,39.72421 -17.6921,93.80256 0,53.74453 18.0261,93.46874 18.0261,39.72422 50.7402,61.75614 33.0477,22.03192 77.7791,22.03192 37.0539,0 65.7622,-15.02176 29.0419,-15.35558 45.7327,-42.06094 17.0248,-27.03917 17.0248,-62.75759 l 22.6996,1.66909 h -138.5342 v -69.76774 h 202.627 v 60.08705 q 0,60.42087 -28.3746,107.15524 -28.0406,46.73437 -77.1115,73.43973 -48.7373,26.37153 -111.8289,26.37153 z m 377.9552,-2.33671 q -35.0506,0 -62.7575,-11.6836 -27.373,-11.68359 -43.3962,-35.38459 -15.6893,-23.70101 -15.6893,-58.75179 0,-30.04352 11.3498,-49.4049 11.3498,-19.6952 30.7112,-31.3788 19.3614,-11.68359 44.3974,-17.6923 25.0365,-6.34252 52.0755,-9.01305 32.7141,-3.67199 51.7418,-6.34252 19.3614,-3.00436 27.7066,-8.34543 8.3456,-5.67489 8.3456,-17.6923 v -2.67053 q 0,-15.35558 -7.6779,-26.70536 -7.6777,-11.68359 -22.3656,-18.02611 -14.3543,-6.67634 -34.3833,-6.67634 -20.3627,0 -36.0523,6.67634 -15.3555,6.34252 -24.3684,18.02611 -9.0132,11.34978 -10.3485,26.37154 h -81.1174 q 2.3366,-35.05078 21.0303,-61.0885 19.0278,-26.37154 52.7431,-40.72567 33.7157,-14.68794 79.7824,-14.68794 34.383,0 61.4224,8.34542 27.3729,8.01161 46.0667,23.701 19.0274,15.6894 28.7083,37.72132 10.0145,22.03192 10.0145,49.40491 v 240.3482 h -82.7866 v -49.73873 h -1.3353 q -8.3456,15.6894 -21.6983,28.37444 -13.3527,12.35123 -33.3817,19.6952 -20.029,7.34398 -48.7373,7.34398 z m 20.6967,-62.42377 q 27.707,0 46.4007,-10.01451 18.6938,-10.01451 28.0407,-26.70536 9.6805,-16.69084 9.6805,-37.05368 v -38.05513 q -4.0058,2.33672 -11.6835,4.67344 -7.6779,2.33672 -18.3601,4.67343 -10.3481,2.00291 -22.6995,4.00581 -12.0174,2.0029 -25.0361,4.0058 -18.0261,2.33672 -33.3817,8.34542 -15.0219,5.67489 -24.3688,16.02322 -9.0129,10.01451 -9.0129,26.03772 0,13.68649 7.344,23.701 7.6776,10.01451 21.0303,15.35558 13.6866,5.00726 32.0464,5.00726 z m 230.4081,56.74888 V 404.5565 h 81.4513 v 76.7779 h -6.3427 q 9.6809,-28.04062 26.3718,-46.73437 17.0244,-18.69375 39.0564,-27.70681 22.3659,-9.34687 47.0683,-9.34687 40.7257,0 70.1016,23.36718 29.3759,23.03337 36.0522,60.42087 h -11.0161 q 7.0103,-25.03627 23.7012,-43.73002 17.0244,-19.02757 41.3933,-29.37589 24.3684,-10.68214 53.4107,-10.68214 33.3817,0 60.087,14.35412 26.7054,14.35413 42.3946,42.72857 15.6896,28.37444 15.6896,69.76775 V 757.0672 h -84.4559 v -220.653 q 0,-34.71697 -19.3614,-51.074 -19.0274,-16.35703 -46.0667,-16.35703 -21.0303,0 -36.7199,9.34688 -15.3556,9.01305 -24.0348,25.03627 -8.3452,16.02321 -8.3452,37.3875 V 757.0672 H 3188.864 V 532.40839 q 0,-28.70825 -18.0261,-46.06674 -18.0261,-17.35848 -46.0667,-17.35848 -18.6938,0 -35.0506,9.01306 -16.0232,8.67924 -25.7041,26.03772 -9.6805,17.35848 -9.6805,42.72857 V 757.0672 Z m 738.1439,8.0116 q -52.7431,0 -91.4659,-23.701 -38.7227,-23.701 -59.7534,-65.0943 -20.6966,-41.72712 -20.6966,-95.13783 0,-53.74453 21.3643,-95.47165 21.6982,-41.72712 59.7534,-65.42812 38.0551,-23.701 87.46,-23.701 38.0551,0 69.0999,13.35267 31.0452,13.35268 53.4107,38.05514 22.366,24.36863 34.3834,58.08414 12.0174,33.3817 12.0174,73.77355 v 23.03337 h -304.1074 v -58.08415 h 262.0464 l -37.7215,15.6894 q 0,-30.04353 -11.0157,-51.74163 -10.6822,-21.6981 -30.3776,-33.3817 -19.3613,-12.01741 -46.4003,-12.01741 -26.7054,0 -46.4008,12.01741 -19.695,11.6836 -30.3771,33.3817 -10.6822,21.6981 -10.6822,51.74163 v 36.38604 q 0,30.37735 10.6822,53.41071 10.6821,23.03337 31.0448,35.71842 20.6966,12.68504 49.7389,12.68504 21.0303,0 37.3875,-6.34252 16.3568,-6.34252 27.373,-17.6923 11.0157,-11.34977 15.6892,-26.37154 h 78.7808 q -6.6764,34.38315 -29.3759,60.75469 -22.3656,26.37154 -56.4149,41.3933 -34.0493,14.68794 -75.4426,14.68794 z m 383.2959,-8.0116 h -125.5152 v -75.44263 h 120.8418 q 53.7447,0 89.1293,-20.36284 35.3846,-20.36283 52.409,-59.0856 17.3585,-39.05658 17.3585,-94.47019 0,-54.74598 -17.3585,-93.13493 -17.0244,-38.72277 -51.7414,-59.0856 -34.3833,-20.36283 -87.1264,-20.36283 h -125.8488 v -75.44263 h 131.5239 q 74.1073,0 127.8517,30.04352 53.7447,30.04353 82.7866,85.79096 29.0422,55.74743 29.0422,132.19151 0,77.11171 -29.3759,133.19296 -29.0422,55.74743 -83.4542,86.12477 -54.0784,30.04353 -130.5226,30.04353 z M 4011.8718,259.67995 V 757.0672 h -88.1277 V 259.67995 Z m 528.8405,505.39885 q -52.7431,0 -91.4659,-23.701 -38.7227,-23.701 -59.7534,-65.0943 -20.6966,-41.72712 -20.6966,-95.13783 0,-53.74453 21.3643,-95.47165 21.6982,-41.72712 59.7534,-65.42812 38.0551,-23.701 87.46,-23.701 38.0551,0 69.0999,13.35267 31.0452,13.35268 53.4108,38.05514 22.3659,24.36863 34.3833,58.08414 12.0174,33.3817 12.0174,73.77355 v 23.03337 h -304.1074 v -58.08415 h 262.0465 l -37.7215,15.6894 q 0,-30.04353 -11.0158,-51.74163 -10.6822,-21.6981 -30.3775,-33.3817 -19.3614,-12.01741 -46.4004,-12.01741 -26.7054,0 -46.4008,12.01741 -19.695,11.6836 -30.3771,33.3817 -10.6822,21.6981 -10.6822,51.74163 v 36.38604 q 0,30.37735 10.6822,53.41071 10.6821,23.03337 31.0448,35.71842 20.6966,12.68504 49.7389,12.68504 21.0303,0 37.3875,-6.34252 16.3568,-6.34252 27.373,-17.6923 11.0158,-11.34977 15.6892,-26.37154 h 78.7808 q -6.6764,34.38315 -29.3759,60.75469 -22.3656,26.37154 -56.4149,41.3933 -34.0493,14.68794 -75.4426,14.68794 z m 299.8951,-8.0116 -132.5252,-352.5107 h 89.129 l 64.4268,183.59932 q 9.6805,29.37589 18.6938,58.75179 9.0128,29.04207 17.6921,58.08414 h -20.029 q 8.6792,-29.04207 17.3585,-58.08414 9.0132,-29.3759 18.3601,-58.75179 l 63.4252,-183.59932 h 88.1277 l -132.5256,352.5107 z m 332.9282,-420.94317 v -76.44408 h 397.5761 v 76.44408 H 5416.8883 V 757.0672 h -88.4617 V 336.12403 Z m 514.4199,428.95477 q -51.7418,0 -91.1322,-23.03336 -39.0564,-23.36719 -61.0883,-64.76049 -21.6983,-41.3933 -21.6983,-96.13928 0,-54.74598 21.6983,-96.13928 22.0319,-41.72712 61.0883,-65.09431 39.3904,-23.36718 91.1322,-23.36718 52.0754,0 91.1318,23.36718 39.0568,23.36719 60.7547,65.09431 22.0319,41.3933 22.0319,96.13928 0,54.74598 -22.0319,96.13928 -21.6979,41.3933 -60.7547,64.76049 -39.0564,23.03336 -91.1318,23.03336 z m 0,-70.43537 q 27.039,0 46.7344,-13.6865 20.029,-13.68649 30.7111,-39.05658 11.0158,-25.7039 11.0158,-60.75468 0,-35.3846 -11.0158,-60.75469 -10.6821,-25.7039 -30.7111,-39.3904 -19.6954,-14.02031 -46.7344,-14.02031 -27.0394,0 -47.0684,14.02031 -20.029,13.6865 -31.0448,39.3904 -10.6821,25.37009 -10.6821,60.75469 0,35.38459 10.6821,60.75468 11.0158,25.37009 31.0448,39.05658 20.029,13.6865 47.0684,13.6865 z m 378.2888,70.43537 q -51.7418,0 -91.1322,-23.03336 -39.0564,-23.36719 -61.0883,-64.76049 -21.6983,-41.3933 -21.6983,-96.13928 0,-54.74598 21.6983,-96.13928 22.0319,-41.72712 61.0883,-65.09431 39.3904,-23.36718 91.1322,-23.36718 52.0755,0 91.1319,23.36718 39.0567,23.36719 60.7547,65.09431 22.0319,41.3933 22.0319,96.13928 0,54.74598 -22.0319,96.13928 -21.698,41.3933 -60.7547,64.76049 -39.0564,23.03336 -91.1319,23.03336 z m 0,-70.43537 q 27.039,0 46.7344,-13.6865 20.029,-13.68649 30.7112,-39.05658 11.0157,-25.7039 11.0157,-60.75468 0,-35.3846 -11.0157,-60.75469 -10.6822,-25.7039 -30.7112,-39.3904 -19.6954,-14.02031 -46.7344,-14.02031 -27.0393,0 -47.0683,14.02031 -20.0291,13.6865 -31.0448,39.3904 -10.6822,25.37009 -10.6822,60.75469 0,35.38459 10.6822,60.75468 11.0157,25.37009 31.0448,39.05658 20.029,13.6865 47.0683,13.6865 z M 6371.0934,259.67995 V 757.0672 h -84.1218 V 259.67995 Z m 201.6999,505.73267 q -42.7286,0 -76.7779,-13.35268 -34.0493,-13.68649 -54.746,-39.72421 -20.6966,-26.37154 -23.3672,-64.09286 h 83.1203 q 2.6705,25.70391 20.6966,40.05804 18.3601,14.02031 49.7389,14.02031 30.3772,0 47.7357,-12.01741 17.6925,-12.01741 17.6925,-30.71116 0,-16.02321 -13.0191,-25.70391 -12.685,-9.68069 -35.0506,-14.35412 l -60.087,-12.35123 q -50.7402,-10.68214 -76.7779,-36.38605 -26.0378,-25.7039 -26.0378,-65.42812 0,-32.38024 17.3585,-56.74888 17.6921,-24.36864 49.4049,-38.05513 32.0465,-13.6865 75.1087,-13.6865 42.7285,0 75.109,14.35413 32.714,14.35413 51.0738,40.72567 18.6937,26.03772 19.6954,62.42377 h -79.1148 q -0.3347,-23.70101 -18.3598,-39.05659 -17.6925,-15.35557 -46.4007,-15.35557 -27.7067,0 -43.7299,12.35122 -16.0232,12.35123 -16.0232,30.37734 0,15.6894 12.3511,25.70391 12.3514,9.68069 34.3833,14.68795 l 63.4252,13.01886 q 52.4091,11.01596 77.1115,34.71696 25.0365,23.701 25.0365,62.42377 0,34.38314 -19.3614,59.75323 -19.0277,25.03627 -52.7431,38.72277 -33.7157,13.68649 -77.4455,13.68649 z"
     id="text5"
     aria-label="My GameDev Tools " />
</svg>
